<svg xmlns="http://www.w3.org/2000/svg" viewBox="0 0 1600 1100" role="img" aria-label="Proud Filipina Pristine Clean professional in a bright sunny home">
  <defs>
    <linearGradient id="sky" x1="0" y1="0" x2="1" y2="1">
      <stop stop-color="#ffffff"/>
      <stop offset=".52" stop-color="#ecfffb"/>
      <stop offset="1" stop-color="#fff3dc"/>
    </linearGradient>
    <linearGradient id="navy" x1="0" y1="0" x2="0" y2="1">
      <stop stop-color="#123f5f"/>
      <stop offset="1" stop-color="#071827"/>
    </linearGradient>
    <linearGradient id="teal" x1="0" y1="0" x2="1" y2="1">
      <stop stop-color="#00b89f"/>
      <stop offset="1" stop-color="#006b61"/>
    </linearGradient>
    <linearGradient id="skin" x1="0" y1="0" x2="0" y2="1">
      <stop stop-color="#f4bd83"/>
      <stop offset="1" stop-color="#c97949"/>
    </linearGradient>
    <linearGradient id="floor" x1="0" y1="0" x2="0" y2="1">
      <stop stop-color="#fffaf2"/>
      <stop offset="1" stop-color="#eadcc9"/>
    </linearGradient>
    <filter id="shadow" x="-20%" y="-20%" width="140%" height="150%">
      <feDropShadow dx="0" dy="24" stdDeviation="22" flood-color="#081827" flood-opacity=".17"/>
    </filter>
    <filter id="soft" x="-50%" y="-50%" width="200%" height="200%">
      <feGaussianBlur stdDeviation="18"/>
    </filter>
  </defs>

  <rect width="1600" height="1100" fill="url(#sky)"/>
  <circle cx="1325" cy="160" r="185" fill="#ffcf69" opacity=".45" filter="url(#soft)"/>
  <circle cx="1325" cy="160" r="86" fill="#ffbd2e" opacity=".72"/>

  <g opacity=".95">
    <rect x="70" y="90" width="560" height="350" rx="34" fill="#ffffff" opacity=".82"/>
    <rect x="118" y="142" width="210" height="250" rx="22" fill="#dff8ff"/>
    <rect x="372" y="142" width="210" height="250" rx="22" fill="#dff8ff"/>
    <path d="M224 142v250M118 266h210M478 142v250M372 266h210" stroke="#ffffff" stroke-width="14" opacity=".9"/>
    <circle cx="475" cy="185" r="52" fill="#ffbd2e" opacity=".55"/>
  </g>

  <rect x="0" y="705" width="1600" height="395" fill="url(#floor)"/>
  <path d="M0 705c260 48 455 42 705 0 325-56 560-34 895 24v371H0z" fill="#fffdf8" opacity=".72"/>
  <path d="M0 814h1600M0 935h1600" stroke="#dccdb8" stroke-width="2" opacity=".65"/>
  <path d="M200 705l-80 395M530 705l-20 395M870 705l46 395M1220 705l108 395" stroke="#dccdb8" stroke-width="2" opacity=".45"/>

  <g filter="url(#shadow)">
    <rect x="130" y="520" width="545" height="168" rx="38" fill="#f4eee7"/>
    <rect x="185" y="465" width="168" height="120" rx="30" fill="#ffffff"/>
    <rect x="415" y="465" width="168" height="120" rx="30" fill="#dbeafa"/>
    <rect x="172" y="672" width="48" height="90" rx="12" fill="#6b4c3b"/>
    <rect x="592" y="672" width="48" height="90" rx="12" fill="#6b4c3b"/>
  </g>

  <g filter="url(#shadow)">
    <rect x="1145" y="398" width="335" height="250" rx="36" fill="#ffffff"/>
    <path d="M1260 628c86-97 184-98 230 0-78 30-154 31-230 0z" fill="#ffbd2e"/>
    <path d="M1312 612c-40-122 44-205 128-219 10 110-38 183-128 219z" fill="#006b61"/>
    <circle cx="1438" cy="394" r="25" fill="#ffbd2e"/>
    <rect x="1182" y="438" width="135" height="90" rx="18" fill="#f2fbf8"/>
    <path d="M1200 497c36-44 72-44 110 0" stroke="#00a78e" stroke-width="8" fill="none" stroke-linecap="round"/>
  </g>

  <g filter="url(#shadow)">
    <ellipse cx="984" cy="322" rx="126" ry="151" fill="#1d120d"/>
    <path d="M872 337c-26 108 14 205 102 270 24-95 24-177-2-248-28-28-61-36-100-22z" fill="#160d09"/>
    <path d="M1090 337c46 104 20 218-66 292-39-93-44-184-16-271 22-24 50-31 82-21z" fill="#160d09"/>
    <ellipse cx="982" cy="330" rx="91" ry="112" fill="url(#skin)"/>
    <path d="M889 310c60-120 202-127 260-12-78-16-160-14-260 12z" fill="#24130d"/>
    <circle cx="942" cy="350" r="7" fill="#2b1b12"/>
    <circle cx="1022" cy="350" r="7" fill="#2b1b12"/>
    <path d="M955 402c31 25 71 25 103 0" stroke="#ffffff" stroke-width="10" stroke-linecap="round"/>
    <path d="M970 378c10 8 24 8 36 0" stroke="#8f5235" stroke-width="5" stroke-linecap="round"/>
    <path d="M805 600c52-118 128-171 226-171 101 0 172 56 219 171l48 235H752z" fill="#ffffff"/>
    <path d="M854 590c38-93 98-129 178-129s137 40 172 129l39 245H814z" fill="url(#navy)"/>
    <path d="M909 462l-58 150M1160 462l54 150" stroke="#082238" stroke-width="18" stroke-linecap="round"/>
    <path d="M968 596l38-32 39 32" fill="none" stroke="#00d6c0" stroke-width="9" stroke-linecap="round" stroke-linejoin="round"/>
    <circle cx="1006" cy="586" r="5" fill="#ffffff"/>
    <text x="920" y="650" font-family="Georgia, serif" font-size="44" fill="#ffffff" font-weight="700">Pristine Clean</text>
    <text x="958" y="684" font-family="Arial, sans-serif" font-size="18" letter-spacing="3" fill="#bdfcf2" font-weight="700">CLEANING SERVICES</text>
    <path d="M820 620c-85 62-145 110-230 154" stroke="url(#skin)" stroke-width="70" stroke-linecap="round"/>
    <path d="M1240 620c66 52 108 112 137 194" stroke="url(#skin)" stroke-width="70" stroke-linecap="round"/>
    <path d="M548 793c88-32 178-35 260-12 40 12 48 60 9 79-102 24-195 10-286-19-34-14-28-35 17-48z" fill="#6ee7f4"/>
    <path d="M594 812c69-19 140-21 206-7" stroke="#0098ab" stroke-width="9" stroke-linecap="round" opacity=".45"/>
    <path d="M1338 822c-10-91 4-177 42-257l72 12c-15 82-20 167-13 251z" fill="#eaffff" stroke="#006b61" stroke-width="8"/>
    <rect x="1366" y="514" width="78" height="70" rx="13" fill="url(#teal)"/>
    <path d="M1372 515c21-38 53-50 91-28" stroke="#00a78e" stroke-width="14" fill="none" stroke-linecap="round"/>
    <text x="1356" y="730" font-family="Georgia, serif" font-size="26" fill="#006b61" font-weight="700">Pristine</text>
    <text x="1358" y="761" font-family="Georgia, serif" font-size="26" fill="#006b61" font-weight="700">Clean</text>
  </g>

  <g filter="url(#shadow)">
    <rect x="86" y="94" width="520" height="236" rx="36" fill="#ffffff" opacity=".92"/>
    <path d="M118 152h88" stroke="#00a78e" stroke-width="10" stroke-linecap="round"/>
    <text x="118" y="211" font-family="Inter, Arial, sans-serif" font-size="58" fill="#081827" font-weight="900">Beautiful homes.</text>
    <text x="118" y="271" font-family="Inter, Arial, sans-serif" font-size="48" fill="#006b61" font-weight="900">Proudly cleaned.</text>
    <circle cx="535" cy="140" r="22" fill="#ffbd2e"/>
    <path d="M515 166l-26 34h52z" fill="#ff6f61" opacity=".9"/>
  </g>
</svg>
