<svg xmlns="http://www.w3.org/2000/svg" viewBox="0 0 900 620" role="img" aria-label="Clean bright living room"><defs><linearGradient id="g" x1="0" x2="1" y1="0" y2="1"><stop stop-color="#e6fff5"/><stop offset="1" stop-color="#ffffff"/></linearGradient><filter id="s"><feDropShadow dx="0" dy="16" stdDeviation="18" flood-opacity=".14"/></filter></defs><rect width="900" height="620" rx="40" fill="url(#g)"/><rect x="70" y="80" width="760" height="420" rx="26" fill="#fff" filter="url(#s)"/><rect x="110" y="120" width="260" height="180" rx="18" fill="#dff8ee"/><circle cx="170" cy="170" r="34" fill="#f7c948"/><rect x="440" y="155" width="270" height="130" rx="18" fill="#176b5b" opacity=".12"/><rect x="160" y="350" width="430" height="95" rx="30" fill="#176b5b"/><rect x="205" y="318" width="120" height="70" rx="22" fill="#2f8b78"/><rect x="430" y="318" width="120" height="70" rx="22" fill="#2f8b78"/><rect x="205" y="440" width="36" height="55" rx="10" fill="#14213d"/><rect x="510" y="440" width="36" height="55" rx="10" fill="#14213d"/><path d="M650 400c80-70 140-68 165 0-54 16-108 18-165 0z" fill="#f7c948"/><path d="M690 390c-22-80 28-128 72-134 4 62-20 103-72 134z" fill="#176b5b"/><circle cx="762" cy="256" r="18" fill="#f7c948"/><text x="90" y="560" font-family="Arial" font-size="34" font-weight="700" fill="#176b5b">A bright, calm, happy home</text></svg>
